<svg xmlns="http://www.w3.org/2000/svg" xmlns:xlink="http://www.w3.org/1999/xlink" width="500" zoomAndPan="magnify" viewBox="0 0 375 374.999991" height="500" preserveAspectRatio="xMidYMid meet" version="1.0"><defs><g/><clipPath id="id1"><path d="M 132 184 L 245 184 L 245 248 L 132 248 Z M 132 184 " clip-rule="nonzero"/></clipPath><clipPath id="id2"><path d="M 188.773438 247.851562 L 132.03125 191.105469 L 187.714844 135.421875 L 244.460938 192.167969 Z M 188.773438 247.851562 " clip-rule="nonzero"/></clipPath><clipPath id="id3"><path d="M 187.722656 259.921875 L 125.675781 197.875 L 187.722656 135.828125 L 249.773438 197.875 Z M 187.722656 259.921875 " clip-rule="nonzero"/></clipPath><clipPath id="id4"><path d="M 149 187 L 227 187 L 227 231 L 149 231 Z M 149 187 " clip-rule="nonzero"/></clipPath><clipPath id="id5"><path d="M 187.851562 230.714844 L 149.136719 192.003906 L 187.320312 153.820312 L 226.035156 192.53125 Z M 187.851562 230.714844 " clip-rule="nonzero"/></clipPath><clipPath id="id6"><path d="M 187.136719 238.949219 L 144.710938 196.523438 L 187.136719 154.09375 L 229.5625 196.523438 Z M 187.136719 238.949219 " clip-rule="nonzero"/></clipPath><clipPath id="id7"><path d="M 181 123 L 216.648438 123 L 216.648438 143 L 181 143 Z M 181 123 " clip-rule="nonzero"/></clipPath><clipPath id="id8"><path d="M 200 115 L 216.648438 115 L 216.648438 123 L 200 123 Z M 200 115 " clip-rule="nonzero"/></clipPath><clipPath id="id9"><path d="M 158.148438 109 L 172 109 L 172 139 L 158.148438 139 Z M 158.148438 109 " clip-rule="nonzero"/></clipPath><clipPath id="id10"><path d="M 175 131 L 180 131 L 180 144.75 L 175 144.75 Z M 175 131 " clip-rule="nonzero"/></clipPath><clipPath id="id11"><path d="M 169 131 L 175 131 L 175 144.75 L 169 144.75 Z M 169 131 " clip-rule="nonzero"/></clipPath><clipPath id="id12"><path d="M 168 91.5 L 182 91.5 L 182 102 L 168 102 Z M 168 91.5 " clip-rule="nonzero"/></clipPath></defs><g clip-path="url(#id1)"><g clip-path="url(#id2)"><g clip-path="url(#id3)"><path fill="#128f8b" d="M 236.195312 184.296875 L 249.773438 197.875 L 187.722656 259.921875 L 125.675781 197.875 L 139.253906 184.296875 L 187.722656 232.769531 Z M 236.195312 184.296875 " fill-opacity="1" fill-rule="nonzero"/></g></g></g><g fill="#128f8b" fill-opacity="1"><g transform="translate(107.249997, 167.192905)"><g><path d="M 10.378906 -17.214844 C 10.078125 -17.238281 9.773438 -17.261719 9.421875 -17.261719 C 5.550781 -17.261719 1.257812 -14.367188 1.257812 -11.078125 C 1.257812 -9.515625 2.214844 -8.933594 3.753906 -8.933594 C 3.660156 -9.144531 3.429688 -9.445312 3.429688 -10.542969 C 3.429688 -13.015625 4.664062 -14.765625 6.695312 -15.605469 L 3.21875 0.558594 C 3.40625 0.535156 3.570312 0.535156 3.753906 0.535156 C 7.8125 0.535156 11.007812 5.832031 13.996094 5.832031 C 15.535156 5.832031 16.328125 4.410156 16.585938 2.167969 C 15.90625 2.449219 15.230469 2.542969 14.648438 2.542969 C 11.617188 2.542969 9.214844 0.0703125 6.789062 -0.464844 Z M 10.378906 -17.214844 "/></g></g></g><g fill="#128f8b" fill-opacity="1"><g transform="translate(117.860764, 167.192905)"><g><path d="M 8.234375 -11.664062 L 8 -10.566406 C 7.835938 -11.640625 6.859375 -11.777344 6.085938 -11.777344 C 2.027344 -11.777344 0.09375 -6.765625 0.09375 -3.617188 C 0.09375 -0.839844 1.609375 0.140625 3.195312 0.140625 C 4.851562 0.140625 5.972656 -0.957031 6.671875 -2.027344 C 6.859375 -0.699219 7.695312 0 8.957031 0 C 10.214844 0 12.316406 -0.375 13.644531 -4.175781 L 12.664062 -4.175781 C 12.316406 -3.007812 11.6875 -2.121094 10.777344 -2.121094 C 10.125 -2.121094 9.820312 -2.332031 9.820312 -2.984375 C 9.820312 -3.195312 9.84375 -3.429688 9.914062 -3.730469 L 11.617188 -11.664062 Z M 6.8125 -10.332031 C 7.535156 -10.332031 7.742188 -9.726562 7.765625 -9.445312 L 6.648438 -4.175781 C 6.367188 -2.824219 5.386719 -2.121094 4.710938 -2.121094 C 4.292969 -2.121094 3.546875 -2.144531 3.546875 -3.941406 C 3.546875 -6.132812 4.828125 -10.332031 6.8125 -10.332031 Z M 6.8125 -10.332031 "/></g></g></g><g fill="#128f8b" fill-opacity="1"><g transform="translate(130.127284, 167.192905)"><g/></g></g><g fill="#128f8b" fill-opacity="1"><g transform="translate(135.141169, 167.192905)"><g><path d="M 6.554688 -14.835938 L 3.382812 0 L 6.742188 0 L 8.164062 -6.648438 L 8.28125 -6.648438 C 12.480469 -6.648438 15.019531 -9.960938 15.019531 -12.875 C 15.019531 -15.300781 13.273438 -17.492188 9.679688 -17.492188 C 5.550781 -17.492188 1.328125 -14.601562 1.328125 -11.3125 C 1.328125 -9.75 2.285156 -9.167969 3.824219 -9.167969 C 3.707031 -9.398438 3.5 -9.609375 3.5 -10.777344 C 3.5 -14.414062 6.085938 -16.421875 9.144531 -16.421875 C 11.753906 -16.421875 12.433594 -14.976562 12.433594 -13.34375 C 12.433594 -10.707031 10.707031 -7.695312 8.351562 -7.511719 L 10.007812 -15.300781 Z M 6.554688 -14.835938 "/></g></g></g><g fill="#128f8b" fill-opacity="1"><g transform="translate(149.180037, 167.192905)"><g><path d="M 3.546875 -3.777344 C 3.546875 -4.058594 3.570312 -4.386719 3.59375 -4.710938 C 6.390625 -4.875 8.957031 -6.902344 8.957031 -9.539062 C 8.957031 -10.707031 8.46875 -11.777344 6.390625 -11.777344 C 1.609375 -11.777344 0.09375 -6.226562 0.09375 -3.570312 C 0.09375 -0.933594 1.539062 0.140625 3.730469 0.140625 C 6.835938 0.140625 8.816406 -2.027344 10.144531 -4.175781 L 9.351562 -4.175781 C 8.1875 -2.84375 7.066406 -1.820312 5.226562 -1.820312 C 4.105469 -1.820312 3.546875 -2.191406 3.546875 -3.777344 Z M 7.160156 -9.585938 C 7.160156 -7.695312 5.597656 -5.949219 3.777344 -5.832031 C 4.269531 -8.117188 5.410156 -10.542969 6.578125 -10.542969 C 7.019531 -10.542969 7.160156 -10.167969 7.160156 -9.585938 Z M 7.160156 -9.585938 "/></g></g></g><g fill="#128f8b" fill-opacity="1"><g transform="translate(158.135061, 167.192905)"><g><path d="M 2.683594 -14.882812 L 1.984375 -11.664062 L 1.214844 -11.664062 L 1.027344 -10.730469 L 1.796875 -10.730469 L 0.398438 -4.175781 C 0.28125 -3.617188 0.210938 -3.101562 0.210938 -2.660156 C 0.210938 -0.699219 1.304688 0.140625 2.707031 0.140625 C 3.964844 0.140625 6.273438 -0.375 7.605469 -4.175781 L 6.625 -4.175781 C 6.273438 -3.007812 5.433594 -2.121094 4.523438 -2.121094 C 3.871094 -2.121094 3.570312 -2.332031 3.570312 -2.984375 C 3.570312 -3.195312 3.59375 -3.429688 3.660156 -3.730469 L 5.15625 -10.730469 L 6.554688 -10.730469 L 6.742188 -11.664062 L 5.339844 -11.664062 L 6.132812 -15.347656 Z M 2.683594 -14.882812 "/></g></g></g><g fill="#128f8b" fill-opacity="1"><g transform="translate(164.361596, 167.192905)"><g><path d="M 2.449219 -14.765625 C 2.449219 -13.738281 3.265625 -12.921875 4.292969 -12.921875 C 5.316406 -12.921875 6.15625 -13.738281 6.15625 -14.765625 C 6.15625 -15.792969 5.316406 -16.628906 4.292969 -16.628906 C 3.265625 -16.628906 2.449219 -15.792969 2.449219 -14.765625 Z M 1.984375 -11.664062 L 0.398438 -4.175781 C 0.28125 -3.617188 0.210938 -3.101562 0.210938 -2.660156 C 0.210938 -0.699219 1.304688 0.140625 2.707031 0.140625 C 3.964844 0.140625 6.273438 -0.375 7.605469 -4.175781 L 6.625 -4.175781 C 6.273438 -3.007812 5.433594 -2.121094 4.523438 -2.121094 C 3.871094 -2.121094 3.570312 -2.332031 3.570312 -2.984375 C 3.570312 -3.195312 3.59375 -3.429688 3.660156 -3.730469 L 5.339844 -11.664062 Z M 1.984375 -11.664062 "/></g></g></g><g fill="#128f8b" fill-opacity="1"><g transform="translate(170.588132, 167.192905)"><g><path d="M 2.683594 -14.882812 L 1.984375 -11.664062 L 1.214844 -11.664062 L 1.027344 -10.730469 L 1.796875 -10.730469 L 0.398438 -4.175781 C 0.28125 -3.617188 0.210938 -3.101562 0.210938 -2.660156 C 0.210938 -0.699219 1.304688 0.140625 2.707031 0.140625 C 3.964844 0.140625 6.273438 -0.375 7.605469 -4.175781 L 6.625 -4.175781 C 6.273438 -3.007812 5.433594 -2.121094 4.523438 -2.121094 C 3.871094 -2.121094 3.570312 -2.332031 3.570312 -2.984375 C 3.570312 -3.195312 3.59375 -3.429688 3.660156 -3.730469 L 5.15625 -10.730469 L 6.554688 -10.730469 L 6.742188 -11.664062 L 5.339844 -11.664062 L 6.132812 -15.347656 Z M 2.683594 -14.882812 "/></g></g></g><g fill="#128f8b" fill-opacity="1"><g transform="translate(176.814667, 167.192905)"><g><path d="M 3.546875 -3.777344 C 3.546875 -4.058594 3.570312 -4.386719 3.59375 -4.710938 C 6.390625 -4.875 8.957031 -6.902344 8.957031 -9.539062 C 8.957031 -10.707031 8.46875 -11.777344 6.390625 -11.777344 C 1.609375 -11.777344 0.09375 -6.226562 0.09375 -3.570312 C 0.09375 -0.933594 1.539062 0.140625 3.730469 0.140625 C 6.835938 0.140625 8.816406 -2.027344 10.144531 -4.175781 L 9.351562 -4.175781 C 8.1875 -2.84375 7.066406 -1.820312 5.226562 -1.820312 C 4.105469 -1.820312 3.546875 -2.191406 3.546875 -3.777344 Z M 7.160156 -9.585938 C 7.160156 -7.695312 5.597656 -5.949219 3.777344 -5.832031 C 4.269531 -8.117188 5.410156 -10.542969 6.578125 -10.542969 C 7.019531 -10.542969 7.160156 -10.167969 7.160156 -9.585938 Z M 7.160156 -9.585938 "/></g></g></g><g fill="#128f8b" fill-opacity="1"><g transform="translate(185.769691, 167.192905)"><g/></g></g><g fill="#128f8b" fill-opacity="1"><g transform="translate(190.783576, 167.192905)"><g><path d="M 15.8125 -9.632812 C 15.417969 -8.933594 14.460938 -8.628906 13.597656 -8.628906 C 13.015625 -8.628906 12.480469 -8.746094 11.824219 -8.746094 C 9.421875 -8.746094 7.789062 -7.371094 7.324219 -5.457031 L 7.488281 -5.433594 C 7.929688 -6.132812 8.675781 -6.484375 9.679688 -6.484375 C 10.261719 -6.484375 10.871094 -6.367188 11.5 -6.34375 C 10.566406 -3.289062 9.074219 -1.820312 6.484375 -1.820312 C 4.898438 -1.820312 4.269531 -2.867188 4.269531 -4.175781 C 4.269531 -6.320312 5.949219 -9.191406 8.445312 -9.75 C 6.765625 -10.191406 6.085938 -11.523438 6.085938 -12.875 C 6.085938 -14.507812 7.089844 -16.164062 8.46875 -16.164062 C 9.097656 -16.164062 9.75 -15.8125 9.75 -14.859375 C 9.75 -14.066406 9.308594 -13.015625 8.722656 -12.828125 C 9.050781 -12.386719 9.421875 -12.199219 9.820312 -12.199219 C 10.753906 -12.199219 11.546875 -13.226562 11.546875 -14.625 C 11.546875 -16.539062 10.054688 -17.539062 8.210938 -17.539062 C 5.226562 -17.539062 3.101562 -14.929688 3.101562 -12.527344 C 3.101562 -11.476562 3.523438 -10.449219 4.523438 -9.726562 C 1.84375 -9.074219 0.210938 -6.132812 0.210938 -3.683594 C 0.210938 -1.492188 1.515625 0.417969 4.5 0.417969 C 8.445312 0.417969 11.453125 -2.589844 12.339844 -6.390625 C 14.296875 -6.671875 15.953125 -8.328125 15.953125 -9.632812 Z M 15.8125 -9.632812 "/></g></g></g><g fill="#128f8b" fill-opacity="1"><g transform="translate(206.478186, 167.192905)"><g/></g></g><g fill="#128f8b" fill-opacity="1"><g transform="translate(211.492071, 167.192905)"><g><path d="M 6.554688 -14.835938 L 3.382812 0 L 6.742188 0 L 8.652344 -8.933594 C 9.074219 -8.980469 9.539062 -9.003906 9.726562 -9.003906 C 11.429688 -9.003906 11.941406 -7.675781 11.941406 -6.042969 C 11.941406 -4.269531 11.335938 -1.84375 9.632812 -1.84375 C 9.097656 -1.84375 8.652344 -2.074219 8.070312 -2.683594 C 7.859375 -2.144531 7.765625 -1.703125 7.765625 -1.328125 C 7.765625 0.09375 9.074219 0.398438 10.078125 0.398438 C 13.972656 0.398438 15.183594 -4.082031 15.183594 -6.320312 C 15.183594 -8.070312 14.414062 -9.679688 12.433594 -10.078125 C 13.949219 -10.9375 14.765625 -12.410156 14.765625 -13.785156 C 14.765625 -15.699219 13.226562 -17.492188 9.796875 -17.492188 C 5.386719 -17.492188 1.328125 -14.53125 1.328125 -11.3125 C 1.328125 -9.75 2.285156 -9.167969 3.824219 -9.167969 C 3.753906 -9.375 3.5 -9.632812 3.5 -10.753906 C 3.5 -14.601562 6.601562 -16.421875 9.328125 -16.421875 C 11.546875 -16.421875 12.410156 -15.230469 12.410156 -13.902344 C 12.410156 -12.152344 10.917969 -10.125 9.050781 -10.125 L 8.910156 -10.125 L 10.007812 -15.300781 Z M 6.554688 -14.835938 "/></g></g></g><g fill="#128f8b" fill-opacity="1"><g transform="translate(227.373242, 167.192905)"><g><path d="M 2.449219 -14.765625 C 2.449219 -13.738281 3.265625 -12.921875 4.292969 -12.921875 C 5.316406 -12.921875 6.15625 -13.738281 6.15625 -14.765625 C 6.15625 -15.792969 5.316406 -16.628906 4.292969 -16.628906 C 3.265625 -16.628906 2.449219 -15.792969 2.449219 -14.765625 Z M 1.984375 -11.664062 L 0.398438 -4.175781 C 0.28125 -3.617188 0.210938 -3.101562 0.210938 -2.660156 C 0.210938 -0.699219 1.304688 0.140625 2.707031 0.140625 C 3.964844 0.140625 6.273438 -0.375 7.605469 -4.175781 L 6.625 -4.175781 C 6.273438 -3.007812 5.433594 -2.121094 4.523438 -2.121094 C 3.871094 -2.121094 3.570312 -2.332031 3.570312 -2.984375 C 3.570312 -3.195312 3.59375 -3.429688 3.660156 -3.730469 L 5.339844 -11.664062 Z M 1.984375 -11.664062 "/></g></g></g><g fill="#128f8b" fill-opacity="1"><g transform="translate(233.599777, 167.192905)"><g><path d="M 9.308594 -4.175781 C 8.863281 -3.800781 8.257812 -3.382812 7.628906 -3.007812 C 7.695312 -3.289062 7.71875 -3.570312 7.71875 -3.894531 C 7.71875 -5.433594 7.488281 -6.34375 7.207031 -12.386719 L 3.753906 -11.917969 C 3.03125 -9.632812 2.191406 -7.324219 0.886719 -5.015625 C 0.234375 -4.710938 -0.351562 -3.917969 -0.351562 -2.84375 C -0.351562 -1.421875 0.675781 0.140625 3.054688 0.140625 C 4.246094 0.140625 5.738281 -0.234375 6.71875 -1.257812 C 7.789062 -1.890625 9.074219 -2.777344 10.285156 -4.175781 Z M 2.542969 -4.175781 C 2.542969 -4.570312 2.308594 -4.851562 2.007812 -4.992188 C 2.777344 -6.484375 3.429688 -7.882812 3.894531 -9.398438 C 4.128906 -5.808594 4.339844 -5.085938 4.339844 -3.871094 C 4.339844 -2.238281 3.335938 -1.703125 2.308594 -1.703125 C 1.28125 -1.703125 0.886719 -2.238281 0.886719 -3.335938 C 1.003906 -3.101562 1.28125 -3.03125 1.515625 -3.03125 C 2.121094 -3.03125 2.542969 -3.617188 2.542969 -4.175781 Z M 2.542969 -4.175781 "/></g></g></g><g fill="#128f8b" fill-opacity="1"><g transform="translate(242.508155, 167.192905)"><g><path d="M 2.683594 -14.882812 L 1.984375 -11.664062 L 1.214844 -11.664062 L 1.027344 -10.730469 L 1.796875 -10.730469 L 0.398438 -4.175781 C 0.28125 -3.617188 0.210938 -3.101562 0.210938 -2.660156 C 0.210938 -0.699219 1.304688 0.140625 2.707031 0.140625 C 3.964844 0.140625 6.273438 -0.375 7.605469 -4.175781 L 6.625 -4.175781 C 6.273438 -3.007812 5.433594 -2.121094 4.523438 -2.121094 C 3.871094 -2.121094 3.570312 -2.332031 3.570312 -2.984375 C 3.570312 -3.195312 3.59375 -3.429688 3.660156 -3.730469 L 5.15625 -10.730469 L 6.554688 -10.730469 L 6.742188 -11.664062 L 5.339844 -11.664062 L 6.132812 -15.347656 Z M 2.683594 -14.882812 "/></g></g></g><g fill="#128f8b" fill-opacity="1"><g transform="translate(248.734691, 167.192905)"><g><path d="M 1.984375 -11.664062 L -0.488281 0 L 2.867188 0 L 4.734375 -8.863281 C 5.339844 -9.421875 5.855469 -9.796875 6.4375 -9.796875 C 7.136719 -9.796875 6.484375 -8.328125 7.789062 -8.328125 C 8.933594 -8.328125 9.46875 -9.214844 9.46875 -10.03125 C 9.46875 -10.917969 8.910156 -11.777344 7.859375 -11.777344 C 6.925781 -11.777344 5.902344 -11.054688 5.015625 -10.191406 L 5.339844 -11.664062 Z M 1.984375 -11.664062 "/></g></g></g><g fill="#128f8b" fill-opacity="1"><g transform="translate(257.503153, 167.192905)"><g><path d="M 6.460938 -11.777344 C 1.65625 -11.777344 0.0703125 -6.226562 0.0703125 -3.546875 C 0.0703125 -0.886719 1.632812 0.140625 3.800781 0.140625 C 6.671875 0.140625 9.027344 -2.589844 9.398438 -6.925781 C 11.078125 -7.207031 12.617188 -7.90625 13.503906 -8.863281 L 13.296875 -9.492188 C 12.292969 -8.792969 10.777344 -8.09375 9.703125 -8.09375 C 9.632812 -8.09375 9.539062 -8.09375 9.445312 -8.117188 C 9.421875 -10.542969 8.445312 -11.777344 6.460938 -11.777344 Z M 4.734375 -2.050781 C 3.847656 -2.050781 3.546875 -2.402344 3.546875 -3.941406 C 3.546875 -6.226562 4.992188 -10.378906 6.648438 -10.378906 C 7.230469 -10.378906 7.488281 -10.03125 7.535156 -9.074219 C 7.113281 -8.910156 6.8125 -8.492188 6.8125 -7.835938 C 6.8125 -7.371094 6.949219 -6.972656 7.441406 -6.859375 C 7.089844 -4.105469 5.878906 -2.050781 4.734375 -2.050781 Z M 4.734375 -2.050781 "/></g></g></g><g fill="#737373" fill-opacity="1"><g transform="translate(135.398433, 181.992982)"><g><path d="M 3.515625 -9.753906 L 3.515625 0 L 5.160156 0 L 5.160156 -5.796875 C 5.402344 -5.859375 5.78125 -5.90625 6.011719 -5.90625 C 6.832031 -5.90625 7.457031 -5.476562 7.457031 -4.078125 C 7.457031 -3.300781 7.289062 -2.101562 7.289062 -1.308594 C 7.289062 -0.394531 7.730469 0.257812 8.628906 0.257812 C 8.992188 0.257812 9.328125 0.183594 9.9375 0 C 9.449219 -0.167969 9.070312 -0.683594 9.070312 -1.597656 C 9.070312 -2.191406 9.144531 -3.195312 9.144531 -3.941406 C 9.144531 -5.175781 8.933594 -6.207031 7.425781 -6.4375 C 8.355469 -7.03125 8.824219 -8.066406 8.824219 -8.902344 C 8.824219 -10.378906 7.367188 -11.414062 4.929688 -11.414062 C 2.359375 -11.414062 0.257812 -9.722656 0.257812 -7.820312 C 0.257812 -6.46875 1.21875 -5.980469 2.054688 -5.980469 C 1.933594 -6.117188 1.550781 -6.316406 1.550781 -7.746094 C 1.550781 -9.695312 2.96875 -10.867188 4.855469 -10.867188 C 6.984375 -10.867188 7.488281 -9.722656 7.488281 -8.75 C 7.488281 -7.640625 6.773438 -6.4375 5.554688 -6.4375 L 5.160156 -6.4375 L 5.160156 -9.984375 Z M 3.515625 -9.753906 "/></g></g></g><g fill="#737373" fill-opacity="1"><g transform="translate(145.315997, 181.992982)"><g><path d="M 5.464844 -5.707031 C 5.464844 -7.320312 4.445312 -7.683594 3.4375 -7.683594 C 1.246094 -7.683594 0.53125 -5.128906 0.53125 -3.425781 C 0.53125 -0.820312 1.886719 0.0898438 3.285156 0.0898438 C 4.839844 0.0898438 6.285156 -1.234375 6.800781 -2.722656 L 6.316406 -2.722656 C 5.78125 -1.535156 4.871094 -1.066406 3.910156 -1.066406 C 3.042969 -1.066406 2.3125 -1.429688 2.160156 -3.042969 C 4.214844 -3.273438 5.464844 -4.292969 5.464844 -5.707031 Z M 2.144531 -3.636719 C 2.144531 -5.128906 2.664062 -6.9375 3.726562 -6.9375 C 4.214844 -6.9375 4.488281 -6.621094 4.488281 -5.859375 C 4.488281 -4.71875 3.574219 -3.867188 2.144531 -3.636719 Z M 2.144531 -3.636719 "/></g></g></g><g fill="#737373" fill-opacity="1"><g transform="translate(150.913645, 181.992982)"><g><path d="M 5.917969 -2.722656 C 5.644531 -2.496094 5.324219 -2.238281 4.992188 -2.007812 C 4.976562 -3.5625 4.6875 -4.214844 3.726562 -8.082031 L 2.191406 -7.777344 C 2.039062 -6.285156 1.445312 -4.777344 0.914062 -3.273438 C 0.609375 -3.105469 0.363281 -2.695312 0.363281 -2.160156 C 0.363281 -1.171875 0.851562 0.0898438 2.632812 0.0898438 C 3.285156 0.0898438 4.292969 -0.214844 4.746094 -1.003906 C 5.324219 -1.414062 5.980469 -1.917969 6.558594 -2.722656 Z M 3.378906 -2.113281 C 3.378906 -1.371094 2.953125 -1.050781 2.3125 -1.050781 C 1.644531 -1.050781 1.234375 -1.460938 1.082031 -2.175781 C 1.203125 -2.023438 1.339844 -1.964844 1.492188 -1.964844 C 1.734375 -1.964844 1.976562 -2.175781 1.976562 -2.554688 C 1.976562 -2.890625 1.824219 -3.105469 1.644531 -3.226562 C 1.949219 -4.320312 2.40625 -5.324219 2.527344 -6.453125 C 3.089844 -3.804688 3.378906 -3.363281 3.378906 -2.113281 Z M 3.378906 -2.113281 "/></g></g></g><g fill="#737373" fill-opacity="1"><g transform="translate(156.115797, 181.992982)"><g><path d="M 0.714844 -9.707031 L 0.714844 -7.609375 L 0.199219 -7.609375 L 0.199219 -7.074219 L 0.714844 -7.074219 L 0.714844 -2.113281 C 0.714844 -1.109375 1.050781 0.0898438 2.511719 0.0898438 C 3.210938 0.0898438 4.214844 -0.183594 4.886719 -2.722656 L 4.320312 -2.722656 C 4.03125 -1.613281 3.5 -1.066406 2.953125 -1.066406 C 2.265625 -1.066406 2.238281 -1.964844 2.238281 -2.433594 L 2.238281 -7.074219 L 3.410156 -7.074219 L 3.410156 -7.609375 L 2.238281 -7.609375 L 2.238281 -9.921875 Z M 0.714844 -9.707031 "/></g></g></g><g fill="#737373" fill-opacity="1"><g transform="translate(159.705591, 181.992982)"><g><path d="M 4.792969 -7.609375 L 4.792969 -6.878906 C 4.503906 -7.503906 3.867188 -7.683594 3.378906 -7.683594 C 1.308594 -7.683594 0.488281 -5.265625 0.488281 -3.394531 C 0.488281 -0.835938 1.855469 0.0898438 3.089844 0.0898438 C 4.046875 0.0898438 4.761719 -0.5625 5.066406 -1.355469 C 5.21875 -0.59375 5.617188 0.0898438 6.542969 0.0898438 C 7.214844 0.0898438 8.203125 -0.183594 8.660156 -2.722656 L 8.097656 -2.722656 C 7.867188 -1.628906 7.488281 -1.066406 7 -1.066406 C 6.34375 -1.066406 6.316406 -2.039062 6.316406 -2.433594 L 6.316406 -7.609375 Z M 3.46875 -1.066406 C 2.585938 -1.066406 2.085938 -1.765625 2.085938 -3.5 C 2.085938 -4.914062 2.585938 -6.847656 3.894531 -6.847656 C 4.351562 -6.847656 4.65625 -6.511719 4.792969 -6.195312 L 4.792969 -2.722656 C 4.792969 -1.796875 4.09375 -1.066406 3.46875 -1.066406 Z M 3.46875 -1.066406 "/></g></g></g><g fill="#737373" fill-opacity="1"><g transform="translate(167.082921, 181.992982)"><g><path d="M 4.320312 -7.609375 L 4.320312 -2.722656 C 4.320312 -1.675781 3.714844 -1.066406 3.136719 -1.066406 C 2.601562 -1.066406 2.222656 -1.445312 2.222656 -2.433594 L 2.222656 -7.609375 L 0.699219 -7.609375 L 0.699219 -2.265625 C 0.699219 -0.53125 1.660156 0.0898438 2.84375 0.0898438 C 3.53125 0.0898438 4.214844 -0.351562 4.59375 -1.339844 C 4.746094 -0.59375 5.144531 0.0898438 6.070312 0.0898438 C 6.742188 0.0898438 7.730469 -0.183594 8.1875 -2.722656 L 7.625 -2.722656 C 7.394531 -1.628906 7.015625 -1.066406 6.527344 -1.066406 C 5.875 -1.066406 5.84375 -2.039062 5.84375 -2.433594 L 5.84375 -7.609375 Z M 4.320312 -7.609375 "/></g></g></g><g fill="#737373" fill-opacity="1"><g transform="translate(173.988709, 181.992982)"><g><path d="M 0.699219 -7.609375 L 0.699219 0 L 2.222656 0 L 2.222656 -5.601562 C 2.570312 -5.964844 3.011719 -6.359375 3.46875 -6.359375 C 3.910156 -6.359375 3.972656 -5.980469 4.320312 -5.980469 C 4.566406 -5.980469 5.023438 -6.164062 5.023438 -6.773438 C 5.023438 -7.273438 4.703125 -7.683594 4.015625 -7.683594 C 3.148438 -7.683594 2.695312 -7.046875 2.222656 -6.332031 L 2.222656 -7.609375 Z M 0.699219 -7.609375 "/></g></g></g><g fill="#737373" fill-opacity="1"><g transform="translate(179.099606, 181.992982)"><g><path d="M 4.792969 -7.609375 L 4.792969 -6.878906 C 4.503906 -7.503906 3.867188 -7.683594 3.378906 -7.683594 C 1.308594 -7.683594 0.488281 -5.265625 0.488281 -3.394531 C 0.488281 -0.835938 1.855469 0.0898438 3.089844 0.0898438 C 4.046875 0.0898438 4.761719 -0.5625 5.066406 -1.355469 C 5.21875 -0.59375 5.617188 0.0898438 6.542969 0.0898438 C 7.214844 0.0898438 8.203125 -0.183594 8.660156 -2.722656 L 8.097656 -2.722656 C 7.867188 -1.628906 7.488281 -1.066406 7 -1.066406 C 6.34375 -1.066406 6.316406 -2.039062 6.316406 -2.433594 L 6.316406 -7.609375 Z M 3.46875 -1.066406 C 2.585938 -1.066406 2.085938 -1.765625 2.085938 -3.5 C 2.085938 -4.914062 2.585938 -6.847656 3.894531 -6.847656 C 4.351562 -6.847656 4.65625 -6.511719 4.792969 -6.195312 L 4.792969 -2.722656 C 4.792969 -1.796875 4.09375 -1.066406 3.46875 -1.066406 Z M 3.46875 -1.066406 "/></g></g></g><g fill="#737373" fill-opacity="1"><g transform="translate(186.476936, 181.992982)"><g><path d="M 0.699219 -7.609375 L 0.699219 0 L 2.222656 0 L 2.222656 -4.871094 C 2.511719 -6.054688 2.96875 -6.527344 3.589844 -6.527344 C 4.109375 -6.527344 4.566406 -6.195312 4.566406 -4.886719 C 4.566406 -4.472656 4.519531 -2.617188 4.519531 -2.238281 C 4.519531 -1.003906 5.023438 0.0898438 6.300781 0.0898438 C 6.9375 0.0898438 7.929688 -0.183594 8.386719 -2.722656 L 7.820312 -2.722656 C 7.578125 -1.566406 7.199219 -1.066406 6.726562 -1.066406 C 6.054688 -1.066406 6.042969 -2.054688 6.042969 -2.375 C 6.042969 -3.164062 6.132812 -4.246094 6.132812 -4.960938 C 6.132812 -6.132812 5.890625 -7.683594 4.046875 -7.683594 C 3.53125 -7.683594 2.816406 -7.5625 2.222656 -6.453125 L 2.222656 -7.609375 Z M 0.699219 -7.609375 "/></g></g></g><g fill="#737373" fill-opacity="1"><g transform="translate(193.580467, 181.992982)"><g><path d="M 0.714844 -9.707031 L 0.714844 -7.609375 L 0.199219 -7.609375 L 0.199219 -7.074219 L 0.714844 -7.074219 L 0.714844 -2.113281 C 0.714844 -1.109375 1.050781 0.0898438 2.511719 0.0898438 C 3.210938 0.0898438 4.214844 -0.183594 4.886719 -2.722656 L 4.320312 -2.722656 C 4.03125 -1.613281 3.5 -1.066406 2.953125 -1.066406 C 2.265625 -1.066406 2.238281 -1.964844 2.238281 -2.433594 L 2.238281 -7.074219 L 3.410156 -7.074219 L 3.410156 -7.609375 L 2.238281 -7.609375 L 2.238281 -9.921875 Z M 0.714844 -9.707031 "/></g></g></g><g fill="#737373" fill-opacity="1"><g transform="translate(197.17026, 181.992982)"><g><path d="M 5.464844 -5.707031 C 5.464844 -7.320312 4.445312 -7.683594 3.4375 -7.683594 C 1.246094 -7.683594 0.53125 -5.128906 0.53125 -3.425781 C 0.53125 -0.820312 1.886719 0.0898438 3.285156 0.0898438 C 4.839844 0.0898438 6.285156 -1.234375 6.800781 -2.722656 L 6.316406 -2.722656 C 5.78125 -1.535156 4.871094 -1.066406 3.910156 -1.066406 C 3.042969 -1.066406 2.3125 -1.429688 2.160156 -3.042969 C 4.214844 -3.273438 5.464844 -4.292969 5.464844 -5.707031 Z M 2.144531 -3.636719 C 2.144531 -5.128906 2.664062 -6.9375 3.726562 -6.9375 C 4.214844 -6.9375 4.488281 -6.621094 4.488281 -5.859375 C 4.488281 -4.71875 3.574219 -3.867188 2.144531 -3.636719 Z M 2.144531 -3.636719 "/></g></g></g><g fill="#737373" fill-opacity="1"><g transform="translate(202.767909, 181.992982)"><g/></g></g><g fill="#737373" fill-opacity="1"><g transform="translate(206.038275, 181.992982)"><g><path d="M 1.550781 -7.730469 C 1.550781 -9.847656 3.242188 -10.867188 4.992188 -10.867188 C 6.589844 -10.867188 7.410156 -10.011719 7.410156 -8.824219 C 7.410156 -7.777344 6.527344 -6.542969 5.386719 -6.542969 L 5.175781 -6.542969 L 5.175781 -9.984375 L 3.53125 -9.753906 L 3.53125 0 L 5.175781 0 L 5.175781 -5.933594 C 5.507812 -5.964844 5.917969 -5.996094 6.164062 -5.996094 C 7.472656 -5.996094 8.261719 -5.1875 8.261719 -3.273438 C 8.261719 -2.238281 8.035156 -0.972656 7 -0.972656 C 6.636719 -0.972656 6.164062 -1.125 5.875 -1.566406 C 5.828125 -1.429688 5.8125 -1.171875 5.8125 -1.050781 C 5.8125 -0.183594 6.605469 0.257812 7.503906 0.257812 C 9.585938 0.257812 10.058594 -2.128906 10.058594 -3.425781 C 10.058594 -5.339844 9.023438 -6.453125 7.472656 -6.605469 C 8.234375 -7.136719 8.660156 -7.957031 8.660156 -8.71875 C 8.660156 -10.121094 7.53125 -11.414062 5.144531 -11.414062 C 2.464844 -11.414062 0.257812 -9.785156 0.257812 -7.746094 C 0.257812 -6.558594 0.957031 -5.980469 2.085938 -5.980469 C 1.976562 -6.179688 1.550781 -6.621094 1.550781 -7.730469 Z M 1.550781 -7.730469 "/></g></g></g><g fill="#737373" fill-opacity="1"><g transform="translate(216.229639, 181.992982)"><g><path d="M 4.320312 -7.609375 L 4.320312 -2.722656 C 4.320312 -1.675781 3.714844 -1.066406 3.136719 -1.066406 C 2.601562 -1.066406 2.222656 -1.445312 2.222656 -2.433594 L 2.222656 -7.609375 L 0.699219 -7.609375 L 0.699219 -2.265625 C 0.699219 -0.53125 1.660156 0.0898438 2.84375 0.0898438 C 3.53125 0.0898438 4.214844 -0.351562 4.59375 -1.339844 C 4.746094 -0.59375 5.144531 0.0898438 6.070312 0.0898438 C 6.742188 0.0898438 7.730469 -0.183594 8.1875 -2.722656 L 7.625 -2.722656 C 7.394531 -1.628906 7.015625 -1.066406 6.527344 -1.066406 C 5.875 -1.066406 5.84375 -2.039062 5.84375 -2.433594 L 5.84375 -7.609375 Z M 4.320312 -7.609375 "/></g></g></g><g fill="#737373" fill-opacity="1"><g transform="translate(223.135427, 181.992982)"><g><path d="M 2.222656 -8.339844 C 2.222656 -9.554688 2.375 -10.4375 3.332031 -10.4375 C 4.0625 -10.4375 4.320312 -9.9375 4.445312 -9.128906 L 5.035156 -9.128906 C 5.035156 -10.667969 4.125 -11.414062 2.921875 -11.414062 C 1.628906 -11.414062 0.699219 -10.515625 0.699219 -8.765625 L 0.699219 0.214844 C -0.257812 0.625 -1.277344 1.308594 -1.277344 2.328125 C -1.277344 3.273438 -0.777344 3.804688 0.320312 3.804688 C 1.324219 3.804688 2.222656 3.363281 2.222656 1.21875 L 2.222656 -7.074219 L 3.453125 -7.074219 L 3.453125 -7.609375 L 2.222656 -7.609375 Z M 0.015625 3.011719 C -0.394531 3.011719 -0.683594 2.679688 -0.683594 2.28125 C -0.683594 1.78125 -0.214844 1.21875 0.699219 0.777344 L 0.699219 1.246094 C 0.699219 2.328125 0.59375 3.011719 0.015625 3.011719 Z M 0.015625 3.011719 "/></g></g></g><g fill="#737373" fill-opacity="1"><g transform="translate(226.770848, 181.992982)"><g><path d="M 2.222656 -8.339844 C 2.222656 -9.554688 2.375 -10.4375 3.332031 -10.4375 C 4.0625 -10.4375 4.320312 -9.9375 4.445312 -9.128906 L 5.035156 -9.128906 C 5.035156 -10.667969 4.125 -11.414062 2.921875 -11.414062 C 1.628906 -11.414062 0.699219 -10.515625 0.699219 -8.765625 L 0.699219 0.214844 C -0.257812 0.625 -1.277344 1.308594 -1.277344 2.328125 C -1.277344 3.273438 -0.777344 3.804688 0.320312 3.804688 C 1.324219 3.804688 2.222656 3.363281 2.222656 1.21875 L 2.222656 -7.074219 L 3.453125 -7.074219 L 3.453125 -7.609375 L 2.222656 -7.609375 Z M 0.015625 3.011719 C -0.394531 3.011719 -0.683594 2.679688 -0.683594 2.28125 C -0.683594 1.78125 -0.214844 1.21875 0.699219 0.777344 L 0.699219 1.246094 C 0.699219 2.328125 0.59375 3.011719 0.015625 3.011719 Z M 0.015625 3.011719 "/></g></g></g><g fill="#737373" fill-opacity="1"><g transform="translate(230.40627, 181.992982)"><g><path d="M 5.464844 -5.707031 C 5.464844 -7.320312 4.445312 -7.683594 3.4375 -7.683594 C 1.246094 -7.683594 0.53125 -5.128906 0.53125 -3.425781 C 0.53125 -0.820312 1.886719 0.0898438 3.285156 0.0898438 C 4.839844 0.0898438 6.285156 -1.234375 6.800781 -2.722656 L 6.316406 -2.722656 C 5.78125 -1.535156 4.871094 -1.066406 3.910156 -1.066406 C 3.042969 -1.066406 2.3125 -1.429688 2.160156 -3.042969 C 4.214844 -3.273438 5.464844 -4.292969 5.464844 -5.707031 Z M 2.144531 -3.636719 C 2.144531 -5.128906 2.664062 -6.9375 3.726562 -6.9375 C 4.214844 -6.9375 4.488281 -6.621094 4.488281 -5.859375 C 4.488281 -4.71875 3.574219 -3.867188 2.144531 -3.636719 Z M 2.144531 -3.636719 "/></g></g></g><g fill="#737373" fill-opacity="1"><g transform="translate(236.003918, 181.992982)"><g><path d="M 0.714844 -9.707031 L 0.714844 -7.609375 L 0.199219 -7.609375 L 0.199219 -7.074219 L 0.714844 -7.074219 L 0.714844 -2.113281 C 0.714844 -1.109375 1.050781 0.0898438 2.511719 0.0898438 C 3.210938 0.0898438 4.214844 -0.183594 4.886719 -2.722656 L 4.320312 -2.722656 C 4.03125 -1.613281 3.5 -1.066406 2.953125 -1.066406 C 2.265625 -1.066406 2.238281 -1.964844 2.238281 -2.433594 L 2.238281 -7.074219 L 3.410156 -7.074219 L 3.410156 -7.609375 L 2.238281 -7.609375 L 2.238281 -9.921875 Z M 0.714844 -9.707031 "/></g></g></g><g clip-path="url(#id4)"><g clip-path="url(#id5)"><g clip-path="url(#id6)"><path fill="#128f8b" d="M 220.277344 187.238281 L 229.5625 196.523438 L 187.136719 238.949219 L 144.710938 196.523438 L 153.992188 187.238281 L 187.136719 220.378906 Z M 220.277344 187.238281 " fill-opacity="1" fill-rule="nonzero"/></g></g></g><g clip-path="url(#id7)"><path fill="#737373" d="M 185.324219 126.011719 C 185.242188 127.425781 184.074219 128.535156 182.660156 128.535156 C 182.605469 128.535156 182.550781 128.53125 182.496094 128.527344 C 181.957031 128.496094 181.464844 128.304688 181.0625 128 L 181.0625 142.339844 L 216.527344 142.339844 L 216.527344 123.785156 L 185.417969 123.785156 C 185.398438 124.503906 185.371094 125.246094 185.324219 126.011719 Z M 185.324219 126.011719 " fill-opacity="1" fill-rule="nonzero"/></g><path fill="#737373" d="M 208.308594 109.925781 C 204.78125 109.925781 201.875 112.203125 201.4375 115.148438 L 215.175781 115.148438 C 214.738281 112.203125 211.832031 109.925781 208.308594 109.925781 Z M 208.308594 109.925781 " fill-opacity="1" fill-rule="nonzero"/><g clip-path="url(#id8)"><path fill="#737373" d="M 200.234375 115.863281 L 200.234375 116.941406 L 201.480469 116.941406 C 201.644531 117.78125 202.011719 118.558594 202.539062 119.242188 L 202.539062 122.996094 L 203.777344 122.996094 L 203.777344 120.453125 C 204.992188 121.363281 206.574219 121.914062 208.308594 121.914062 C 210.039062 121.914062 211.621094 121.363281 212.835938 120.453125 L 212.835938 122.996094 L 214.074219 122.996094 L 214.074219 119.238281 C 214.601562 118.558594 214.96875 117.78125 215.132812 116.941406 L 216.378906 116.941406 L 216.378906 115.863281 Z M 200.234375 115.863281 " fill-opacity="1" fill-rule="nonzero"/></g><path fill="#737373" d="M 209.417969 108.175781 C 209.417969 108.320312 209.390625 108.464844 209.335938 108.601562 C 209.277344 108.738281 209.199219 108.859375 209.09375 108.964844 C 208.988281 109.066406 208.867188 109.148438 208.734375 109.203125 C 208.597656 109.261719 208.453125 109.289062 208.308594 109.289062 C 208.160156 109.289062 208.015625 109.261719 207.882812 109.203125 C 207.746094 109.148438 207.625 109.066406 207.519531 108.964844 C 207.417969 108.859375 207.335938 108.738281 207.277344 108.601562 C 207.222656 108.464844 207.195312 108.320312 207.195312 108.175781 C 207.195312 108.027344 207.222656 107.882812 207.277344 107.746094 C 207.335938 107.609375 207.417969 107.488281 207.519531 107.386719 C 207.625 107.28125 207.746094 107.199219 207.882812 107.144531 C 208.015625 107.085938 208.160156 107.058594 208.308594 107.058594 C 208.453125 107.058594 208.597656 107.085938 208.734375 107.144531 C 208.867188 107.199219 208.988281 107.28125 209.09375 107.386719 C 209.199219 107.488281 209.277344 107.609375 209.335938 107.746094 C 209.390625 107.882812 209.417969 108.027344 209.417969 108.175781 Z M 209.417969 108.175781 " fill-opacity="1" fill-rule="nonzero"/><path fill="#737373" d="M 197.058594 115.148438 C 196.621094 112.203125 193.714844 109.925781 190.191406 109.925781 C 187.601562 109.925781 185.347656 111.15625 184.15625 112.972656 C 184.402344 113.636719 184.609375 114.359375 184.78125 115.148438 Z M 197.058594 115.148438 " fill-opacity="1" fill-rule="nonzero"/><path fill="#737373" d="M 184.929688 115.863281 C 185.265625 117.683594 185.4375 119.8125 185.441406 122.277344 C 185.441406 122.515625 185.4375 122.753906 185.433594 122.996094 L 185.660156 122.996094 L 185.660156 120.453125 C 186.875 121.363281 188.457031 121.914062 190.191406 121.914062 C 191.921875 121.914062 193.503906 121.363281 194.71875 120.453125 L 194.71875 122.996094 L 195.957031 122.996094 L 195.957031 119.238281 C 196.484375 118.558594 196.851562 117.78125 197.015625 116.941406 L 198.261719 116.941406 L 198.261719 115.863281 Z M 184.929688 115.863281 " fill-opacity="1" fill-rule="nonzero"/><path fill="#737373" d="M 191.300781 108.175781 C 191.300781 108.320312 191.273438 108.464844 191.21875 108.601562 C 191.160156 108.738281 191.082031 108.859375 190.976562 108.964844 C 190.871094 109.066406 190.75 109.148438 190.617188 109.203125 C 190.480469 109.261719 190.335938 109.289062 190.191406 109.289062 C 190.042969 109.289062 189.902344 109.261719 189.765625 109.203125 C 189.628906 109.148438 189.507812 109.066406 189.402344 108.964844 C 189.300781 108.859375 189.21875 108.738281 189.164062 108.601562 C 189.105469 108.464844 189.078125 108.320312 189.078125 108.175781 C 189.078125 108.027344 189.105469 107.882812 189.164062 107.746094 C 189.21875 107.609375 189.300781 107.488281 189.402344 107.386719 C 189.507812 107.28125 189.628906 107.199219 189.765625 107.144531 C 189.902344 107.085938 190.042969 107.058594 190.191406 107.058594 C 190.335938 107.058594 190.480469 107.085938 190.617188 107.144531 C 190.75 107.199219 190.871094 107.28125 190.976562 107.386719 C 191.082031 107.488281 191.160156 107.609375 191.21875 107.746094 C 191.273438 107.882812 191.300781 108.027344 191.300781 108.175781 Z M 191.300781 108.175781 " fill-opacity="1" fill-rule="nonzero"/><g clip-path="url(#id9)"><path fill="#737373" d="M 166.855469 127.386719 C 166.886719 127.386719 166.917969 127.382812 166.949219 127.382812 C 167.789062 127.332031 168.429688 126.609375 168.382812 125.765625 C 168.359375 125.414062 168.34375 125.070312 168.328125 124.734375 L 169.402344 122.925781 L 168.527344 122.40625 L 168.277344 122.824219 C 168.273438 122.640625 168.273438 122.457031 168.273438 122.28125 C 168.265625 117.648438 168.941406 115.046875 169.601562 113.6875 L 169.601562 121.910156 L 171.324219 113.535156 L 171.339844 113.535156 L 170.714844 109.097656 C 170.378906 109.136719 169.929688 109.238281 169.4375 109.488281 C 168.414062 109.996094 167.308594 111.113281 166.535156 113.089844 C 165.75 115.074219 165.222656 117.945312 165.222656 122.28125 C 165.222656 123.402344 165.257812 124.617188 165.335938 125.945312 C 165.359375 126.355469 165.542969 126.714844 165.816406 126.972656 L 165.226562 127.972656 L 162.4375 132.683594 L 160.945312 131.792969 L 158.265625 136.316406 L 162.121094 138.613281 L 164.800781 134.089844 L 163.308594 133.203125 L 166.136719 128.433594 L 166.761719 127.378906 C 166.792969 127.382812 166.824219 127.386719 166.855469 127.386719 Z M 159.390625 135.871094 L 161.046875 133.078125 L 161.539062 133.371094 L 159.882812 136.164062 Z M 160.433594 136.496094 L 162.089844 133.699219 L 162.582031 133.992188 L 160.925781 136.789062 Z M 161.972656 137.410156 L 161.480469 137.117188 L 163.136719 134.324219 L 163.628906 134.617188 Z M 161.972656 137.410156 " fill-opacity="1" fill-rule="nonzero"/></g><path fill="#737373" d="M 171.609375 109.074219 L 172.238281 113.535156 L 177.277344 113.535156 L 177.90625 109.074219 L 177.253906 109.074219 L 177.550781 107.925781 L 177.570312 107.839844 L 177.300781 107.925781 L 175.171875 108.625 L 175.171875 110.246094 L 174.410156 110.246094 L 174.410156 108.648438 L 172.214844 107.925781 L 171.945312 107.839844 L 171.96875 107.925781 L 172.261719 109.074219 Z M 171.609375 109.074219 " fill-opacity="1" fill-rule="nonzero"/><path fill="#737373" d="M 178.140625 113.789062 L 179.917969 122.417969 L 179.917969 113.695312 C 180.03125 113.929688 180.144531 114.195312 180.257812 114.507812 C 180.792969 116 181.246094 118.453125 181.246094 122.28125 C 181.246094 123.335938 181.210938 124.492188 181.136719 125.765625 C 181.085938 126.609375 181.730469 127.332031 182.570312 127.382812 C 182.601562 127.386719 182.628906 127.386719 182.660156 127.386719 C 183.460938 127.386719 184.136719 126.757812 184.183594 125.945312 C 184.261719 124.617188 184.296875 123.398438 184.296875 122.28125 C 184.289062 116.507812 183.367188 113.3125 182.113281 111.390625 C 181.488281 110.4375 180.757812 109.824219 180.078125 109.488281 C 179.585938 109.238281 179.140625 109.136719 178.804688 109.097656 Z M 178.140625 113.789062 " fill-opacity="1" fill-rule="nonzero"/><g clip-path="url(#id10)"><path fill="#737373" d="M 175.199219 132.699219 L 175.199219 142.378906 C 175.199219 143.6875 176.257812 144.742188 177.558594 144.742188 C 178.859375 144.742188 179.917969 143.6875 179.917969 142.378906 L 179.917969 131.601562 C 179.03125 131.953125 177.164062 132.597656 175.199219 132.699219 Z M 175.199219 132.699219 " fill-opacity="1" fill-rule="nonzero"/></g><g clip-path="url(#id11)"><path fill="#737373" d="M 169.601562 131.640625 L 169.601562 142.378906 C 169.601562 143.6875 170.65625 144.742188 171.957031 144.742188 C 173.261719 144.742188 174.316406 143.6875 174.316406 142.378906 L 174.316406 132.703125 C 172.390625 132.625 170.542969 132.007812 169.601562 131.640625 Z M 169.601562 131.640625 " fill-opacity="1" fill-rule="nonzero"/></g><path fill="#737373" d="M 175.457031 107.925781 C 177.496094 107.59375 179.050781 105.820312 179.050781 103.679688 C 179.050781 102.976562 178.878906 102.3125 178.578125 101.722656 C 177.941406 101.503906 176.210938 100.957031 174.757812 100.957031 C 173.304688 100.957031 171.574219 101.503906 170.9375 101.722656 C 170.636719 102.3125 170.46875 102.976562 170.46875 103.679688 C 170.46875 105.820312 172.023438 107.59375 174.0625 107.925781 C 174.289062 107.964844 174.519531 107.984375 174.757812 107.984375 C 174.996094 107.984375 175.230469 107.964844 175.457031 107.925781 Z M 175.457031 107.925781 " fill-opacity="1" fill-rule="nonzero"/><g clip-path="url(#id12)"><path fill="#737373" d="M 174.757812 100.382812 C 176.355469 100.382812 178.289062 101.042969 178.738281 101.203125 C 178.796875 101.226562 178.832031 101.238281 178.832031 101.238281 C 178.832031 101.238281 178.695312 100.542969 178.660156 99.78125 C 178.628906 98.996094 178.710938 98.132812 179.175781 97.898438 C 179.757812 97.609375 181.15625 96.929688 181.394531 95.949219 C 181.523438 95.410156 181.304688 94.785156 180.417969 94.085938 C 180.199219 94.308594 179.761719 94.664062 179.023438 94.878906 C 179.226562 94.675781 179.648438 94.125 179.941406 93.734375 C 179.085938 93.121094 178.402344 92.671875 177.820312 92.34375 C 177.640625 92.617188 177.328125 92.980469 176.804688 93.3125 C 176.933594 93.082031 177.15625 92.527344 177.328125 92.082031 C 176.371094 91.613281 175.664062 91.5 174.757812 91.5 C 173.851562 91.5 173.148438 91.613281 172.191406 92.082031 C 172.363281 92.527344 172.585938 93.082031 172.710938 93.3125 C 172.1875 92.980469 171.875 92.617188 171.695312 92.34375 C 171.113281 92.671875 170.433594 93.121094 169.574219 93.734375 C 169.871094 94.125 170.289062 94.675781 170.496094 94.878906 C 169.757812 94.664062 169.316406 94.308594 169.097656 94.085938 C 168.210938 94.785156 167.992188 95.410156 168.121094 95.945312 C 168.359375 96.929688 169.761719 97.609375 170.339844 97.898438 C 170.808594 98.132812 170.886719 98.992188 170.855469 99.78125 C 170.824219 100.542969 170.683594 101.238281 170.683594 101.238281 C 170.683594 101.238281 170.71875 101.226562 170.78125 101.203125 C 171.226562 101.042969 173.160156 100.382812 174.757812 100.382812 Z M 174.757812 100.382812 " fill-opacity="1" fill-rule="nonzero"/></g></svg>